# xmcd
#
# Track frame offsets:
#	150
#	23893
#	41285
#	62384
#	78218
#	95149
#	115600
#	132145
#	153806
#	175121
#	190551
#
# Disc length: 2843 seconds
#
# Revision: 1
# Processed by: cddbd v1.5.2PL0 Copyright (c) Steve Scherf et al.
# Submitted via: audiograbber 1.83.01
#
DISCID=740b190b
DTITLE=The Band Of Heathens - The Band Of Heathens
DYEAR=2009
DGENRE=Country
TTITLE0=Don't Call On Me
TTITLE1=Jackson Station
TTITLE2=Maple Tears
TTITLE3=Heart On My Sleeve
TTITLE4=Second Line
TTITLE5=40 Days
TTITLE6=This I Know
TTITLE7=Unsleeping Eye
TTITLE8=Cornbread
TTITLE9=Nine Steps Down
TTITLE10=Hallelujah
EXTD=
EXTT0=
EXTT1=
EXTT2=
EXTT3=
EXTT4=
EXTT5=
EXTT6=
EXTT7=
EXTT8=
EXTT9=
EXTT10=
PLAYORDER=
